<?xml version="1.0" standalone="no"?><!DOCTYPE svg PUBLIC "-//W3C//DTD SVG 1.1//EN" "http://www.w3.org/Graphics/SVG/1.1/DTD/svg11.dtd"><svg t="1698811521455" class="icon" viewBox="0 0 1024 1024" version="1.1" xmlns="http://www.w3.org/2000/svg" p-id="13203" xmlns:xlink="http://www.w3.org/1999/xlink" width="200" height="200"><path d="M608.22 112.05h-80.08c0-26.69-21.53-47.79-47.79-47.79s-47.79 21.53-47.79 47.79h-80.08c-35.3 0-64.15 28.84-64.15 64.15h383.59c0.02-35.31-28.4-64.15-63.7-64.15z m-143.79 0c0-8.61 7.32-15.93 15.93-15.93s15.93 7.32 15.93 15.93h-31.86z m6.46 748.67c0-10.76 1.29-20.23 3.44-28.84H224.2c-17.65 0-31.86-14.21-31.86-31.86s14.21-31.86 31.86-31.86h250.13c-2.15-8.61-3.44-17.22-3.44-26.26 0-22.39 5.6-41.76 16.36-61.13-10.76-18.08-16.36-37.46-16.36-58.55 0-4.74 0.43-9.47 0.86-14.21H224.2c-17.65 0-31.86-14.21-31.86-31.86s14.21-31.86 31.86-31.86h276.82c42.62-49.51 126.57-80.94 230.33-80.94 49.51 0 94.28 7.32 132.6 20.23V192.13c0-35.3-28.84-64.15-64.15-64.15H690.45c8.18 14.21 13.35 30.57 13.35 47.79v31.86H256.49v-31.86c0-17.65 5.17-34.01 13.35-47.79H160.48c-35.3 0-64.15 28.84-64.15 64.15V895.6c0 35.3 28.84 64.15 64.15 64.15h361.64c-32.29-27.13-51.23-61.14-51.23-99.03zM224.2 319.99h511.89c17.65 0 31.86 14.21 31.86 31.86s-14.21 31.86-31.86 31.86H224.2c-17.65 0-31.86-14.21-31.86-31.86s14.21-31.86 31.86-31.86z m310.83 301.79c0 52.52 87.83 95.14 196.32 95.14s196.32-42.62 196.32-95.14-87.83-95.14-196.32-95.14-196.32 42.62-196.32 95.14z m196.32 146.38c-84.81 0-154.13-26.26-184.26-62.86-9.04 13.35-12.05 23.25-12.05 36.16 0 52.95 87.83 99.02 196.32 99.02 108.92 0 196.32-43.05 196.32-99.02 0-13.35-6.03-23.25-12.05-36.16-30.16 36.17-99.47 62.86-184.28 62.86z m0 118.82c-84.81 0-154.13-26.26-184.26-62.86-9.04 9.9-12.05 23.25-12.05 36.16 0 52.95 87.83 99.02 196.32 99.02 108.92 0 196.32-43.05 196.32-99.02 0-13.35-6.03-23.25-12.05-36.16-30.16 36.6-99.47 62.86-184.28 62.86z" p-id="13204" fill="#bfbfbf"></path></svg>