<?xml version="1.0" standalone="no"?><!DOCTYPE svg PUBLIC "-//W3C//DTD SVG 1.1//EN" "http://www.w3.org/Graphics/SVG/1.1/DTD/svg11.dtd"><svg t="1698811297654" class="icon" viewBox="0 0 1026 1024" version="1.1" xmlns="http://www.w3.org/2000/svg" p-id="6404" xmlns:xlink="http://www.w3.org/1999/xlink" width="200.390625" height="200"><path d="M327.68 571.392V532.48c0-8.192 6.144-14.336 14.336-14.336h124.928c8.192 0 14.336 6.144 14.336 14.336v38.912c0 8.192-6.144 14.336-14.336 14.336h-124.928c-2.048 0-6.144-2.048-8.192-2.048-6.144-6.144-6.144-10.24-6.144-12.288z m135.168-329.728h-124.928c-2.048 0-6.144-2.048-8.192-2.048-2.048-4.096-2.048-8.192-2.048-10.24V190.464c0-8.192 6.144-14.336 14.336-14.336h124.928c8.192 0 14.336 6.144 14.336 14.336v38.912c-2.048 6.144-8.192 12.288-18.432 12.288z m-8.192 737.28v6.144H32.768c-18.432 0-32.768-14.336-32.768-36.864V45.056C0 26.624 14.336 12.288 32.768 8.192h532.48c18.432 0 32.768 14.336 32.768 36.864v229.376h335.872c18.432 0 32.768 14.336 32.768 32.768v165.888c-18.432-26.624-43.008-49.152-69.632-65.536v-49.152c0-2.048-2.048-8.192-6.144-12.288-2.048-2.048-6.144-6.144-12.288-6.144H614.4c-8.192 0-14.336 6.144-14.336 14.336v49.152h-2.048c-24.576 0-49.152 8.192-67.584 26.624V90.112c0-2.048-2.048-8.192-6.144-12.288-2.048-2.048-6.144-6.144-12.288-6.144H77.824c-2.048 0-8.192 2.048-12.288 6.144-2.048 4.096-4.096 6.144-4.096 12.288v800.768c0 8.192 6.144 14.336 14.336 14.336H450.56c4.096 28.672 4.096 53.248 4.096 73.728zM327.68 399.36v-43.008c0-8.192 6.144-14.336 14.336-14.336h124.928c8.192 0 14.336 6.144 14.336 14.336v38.912c0 8.192-6.144 14.336-14.336 14.336h-124.928c-2.048 0-6.144-2.048-8.192-2.048-6.144 0-6.144-6.144-6.144-8.192z m0 344.064v-43.008c0-8.192 6.144-14.336 14.336-14.336h124.928c8.192 0 14.336 6.144 14.336 14.336v38.912c0 8.192-6.144 14.336-14.336 14.336h-124.928c-2.048 0-6.144 0-8.192-2.048-6.144-2.048-6.144-6.144-6.144-8.192z m-55.296-385.024v38.912c0 8.192-6.144 14.336-14.336 14.336H133.12c-2.048 0-6.144 0-8.192-2.048-2.048-2.048-2.048-6.144-2.048-8.192v-38.912c0-8.192 6.144-14.336 14.336-14.336h124.928c4.096-4.096 10.24 2.048 10.24 10.24z m0 174.08v38.912c0 8.192-6.144 14.336-14.336 14.336H133.12c-2.048 0-6.144 0-8.192-2.048-2.048-2.048-2.048-6.144-2.048-8.192v-38.912c0-8.192 6.144-14.336 14.336-14.336h124.928c4.096-6.144 10.24 0 10.24 10.24z m0-346.112V225.28c0 8.192-6.144 14.336-14.336 14.336H133.12c-2.048 0-6.144 0-8.192-2.048-2.048-2.048-2.048-6.144-2.048-8.192V190.464c0-8.192 6.144-14.336 14.336-14.336h124.928c4.096-4.096 10.24 2.048 10.24 10.24zM133.12 688.128h124.928c8.192 0 14.336 6.144 14.336 14.336v38.912c0 8.192-6.144 14.336-14.336 14.336H133.12c-2.048 0-6.144 0-8.192-2.048-2.048-2.048-2.048-6.144-2.048-8.192v-38.912c-2.048-12.288 4.096-18.432 10.24-18.432z m532.48-219.136c30.72-20.48 63.488-32.768 102.4-32.768 100.352 0 182.272 81.92 182.272 182.272s-81.92 182.272-182.272 182.272-182.272 81.92-182.272 182.272c0 20.48-18.432 36.864-36.864 36.864S512 1001.472 512 983.04c0-96.256 55.296-184.32 137.216-227.328-38.912-32.768-63.488-81.92-63.488-135.168 0-24.576 6.144-45.056 12.288-65.536 22.528-45.056 47.104-71.68 67.584-86.016z m106.496 253.952c57.344 0 106.496-49.152 106.496-106.496 0-57.344-49.152-106.496-106.496-106.496s-106.496 49.152-106.496 106.496c-2.048 59.392 47.104 106.496 106.496 106.496z m196.608 92.16c38.912 45.056 61.44 102.4 57.344 163.84 0 20.48-18.432 36.864-36.864 36.864s-36.864-18.432-36.864-36.864c0-43.008-14.336-83.968-43.008-114.688-12.288-14.336-12.288-38.912 6.144-51.2 14.336-16.384 38.912-12.288 53.248 2.048z m0 0" fill="#bfbfbf" p-id="6405"></path></svg>