<?xml version="1.0" standalone="no"?><!DOCTYPE svg PUBLIC "-//W3C//DTD SVG 1.1//EN" "http://www.w3.org/Graphics/SVG/1.1/DTD/svg11.dtd"><svg t="1698811190144" class="icon" viewBox="0 0 1024 1024" version="1.1" xmlns="http://www.w3.org/2000/svg" p-id="4094" xmlns:xlink="http://www.w3.org/1999/xlink" width="200" height="200"><path d="M991.292235 944.790588c15.058824 0 27.346824 13.131294 27.346824 29.153883s-12.288 29.093647-27.346824 29.093647H27.346824c-15.058824 0-27.346824-13.071059-27.346824-29.093647s12.288-29.153882 27.346824-29.153883zM391.529412 550.610824a30.117647 30.117647 0 0 1 30.117647 30.117647v301.17647a30.117647 30.117647 0 1 1-60.235294 0v-301.17647a30.117647 30.117647 0 0 1 30.117647-30.117647z m-240.941177 0a30.117647 30.117647 0 0 1 30.117647 30.117647v301.17647a30.117647 30.117647 0 1 1-60.235294 0v-301.17647a30.117647 30.117647 0 0 1 30.117647-30.117647z m481.882353 0a30.117647 30.117647 0 0 1 30.117647 30.117647v301.17647a30.117647 30.117647 0 1 1-60.235294 0v-301.17647a30.117647 30.117647 0 0 1 30.117647-30.117647z m240.941177 0a30.117647 30.117647 0 0 1 30.117647 30.117647v301.17647a30.117647 30.117647 0 1 1-60.235294 0v-301.17647a30.117647 30.117647 0 0 1 30.117647-30.117647zM481.340235 58.608941a59.934118 59.934118 0 0 1 67.885177 1.385412c4.999529 3.614118 9.938824 6.987294 14.757647 10.24l44.453647 29.756235 21.865412 14.576941c31.201882 20.781176 70.234353 46.682353 110.290823 73.065412l30.117647 19.877647c75.414588 49.453176 148.720941 96.737882 175.766588 111.616 59.873882 33.069176 75.053176 68.306824 77.221648 92.03953a66.861176 66.861176 0 0 1-22.829177 57.46447c-17.046588 14.456471-46.622118 21.564235-89.931294 21.564236-8.854588 0-15.841882-0.301176-19.275294-0.421648l-4.336941 0.120471-373.458824 0.421647-373.519059-0.421647h-0.421647l-4.096-0.120471c-3.252706 0.120471-10.24 0.421647-19.154823 0.421648-43.309176 0-72.643765-6.987294-89.871059-21.564236a67.282824 67.282824 0 0 1-22.949647-57.344C6.023529 387.553882 21.202824 352.376471 81.016471 319.307294c62.343529-34.334118 389.481412-253.590588 389.722353-253.771294z m33.129412 46.98353l-15.420235 9.758117c-97.581176 65.656471-330.270118 221.244235-392.734118 255.638588-34.032941 18.733176-47.164235 36.382118-47.947294 45.839059a6.445176 6.445176 0 0 0 2.710588 6.264471c3.674353 3.192471 20.118588 9.035294 56.018824 9.035294 7.649882 0 13.854118-0.301176 16.865882-0.421647 1.445647-0.180706 2.529882-0.180706 3.011765-0.180706l2.16847 0.180706h1.867295l373.217882 0.421647 373.217882-0.421647h1.92753c0.662588-0.180706 1.505882-0.180706 2.16847-0.180706 0.421647 0 1.385412 0.180706 3.011765 0.180706 2.891294 0.120471 9.035294 0.421647 16.865882 0.421647 35.900235 0 52.284235-6.023529 56.018824-9.035294a6.686118 6.686118 0 0 0 2.409412-6.264471c-0.963765-9.456941-13.914353-27.105882-47.947295-45.839059-32.948706-18.191059-114.085647-70.595765-196.969411-125.168941l-33.129412-21.925647a26120.011294 26120.011294 0 0 1-156.370824-104.327529l-20.901647-13.974588z m-0.783059 58.548705c62.464 0 113.242353 54.151529 113.242353 120.651295s-50.778353 120.651294-113.242353 120.651294-113.242353-54.151529-113.242353-120.651294 50.778353-120.651294 113.242353-120.651295z m0 58.187295c-32.225882 0-58.608941 27.949176-58.608941 62.464s26.202353 62.464 58.608941 62.464 58.608941-27.949176 58.608941-62.464-26.202353-62.464-58.608941-62.464z" p-id="4095" fill="#bfbfbf"></path></svg>